<svg style="height: 486px; width: 486px;" xmlns="http://www.w3.org/2000/svg" viewBox="0 0 512 512"><rect fill="#000" fill-opacity="1" height="512" width="512" rx="32" ry="32"></rect><g class="" style="" transform="translate(0,0)"><path d="M224 32c9.036 24.71 106.984 58.72 156.096 64-37.096 7.89-53.042 10.52-57.545 32-13.076 62.384 191.477 60.478 115.73 152.223 69.11-15.788 57.922-116.197 15.887-129.84-27.237-8.84-63.75-11.67-47.75-38.383C425.962 88.104 503.57 59.74 448 32zM28.096 292v64h87v-64zm105 0v64h274v-64zm292 0v64h16v-64zm34 0v64h17v-64z" fill="#fff" fill-opacity="1"></path></g></svg>